<mxfile host="app.diagrams.net" modified="2024-02-01T06:54:03.793Z" agent="Mozilla/5.0 (Windows NT 10.0; Win64; x64) AppleWebKit/537.36 (KHTML, like Gecko) Chrome/120.0.0.0 Safari/537.36 Edg/120.0.0.0" etag="pXOf5QPaSIEScGsLzzxj" version="22.1.20" type="github">
  <diagram name="第 1 页" id="p7HRjF0CEqm5J5ALbMHC">
    <mxGraphModel dx="2306" dy="1961" grid="1" gridSize="10" guides="1" tooltips="1" connect="1" arrows="1" fold="1" page="0" pageScale="1" pageWidth="827" pageHeight="1169" math="0" shadow="0">
      <root>
        <mxCell id="0" />
        <mxCell id="1" parent="0" />
        <mxCell id="zued0OZVDX7-Uuz-uOzh-1" value="&lt;a href=&quot;https://repo.openeuler.org/openEuler-22.03-LTS-SP2/WSL/&quot;&gt;openEuler-WSL-22.03.zip&lt;/a&gt;" style="rounded=0;whiteSpace=wrap;html=1;sketch=1;hachureGap=4;jiggle=2;curveFitting=1;fontFamily=Architects Daughter;fontSource=https%3A%2F%2Ffonts.googleapis.com%2Fcss%3Ffamily%3DArchitects%2BDaughter;fontSize=20;" parent="1" vertex="1">
          <mxGeometry x="440" y="-250" width="360" height="30" as="geometry" />
        </mxCell>
        <mxCell id="zued0OZVDX7-Uuz-uOzh-3" style="edgeStyle=none;curved=1;rounded=0;sketch=1;hachureGap=4;jiggle=2;curveFitting=1;orthogonalLoop=1;jettySize=auto;html=1;fontFamily=Architects Daughter;fontSource=https%3A%2F%2Ffonts.googleapis.com%2Fcss%3Ffamily%3DArchitects%2BDaughter;fontSize=16;startSize=8;endSize=8;" parent="1" source="zued0OZVDX7-Uuz-uOzh-2" edge="1">
          <mxGeometry relative="1" as="geometry">
            <mxPoint x="360" y="-440" as="targetPoint" />
          </mxGeometry>
        </mxCell>
        <mxCell id="zued0OZVDX7-Uuz-uOzh-2" value="&lt;a href=&quot;https://repo.openeuler.org/openEuler-22.03-LTS-SP2/docker_img/&quot;&gt;repo.openeuler.org&lt;/a&gt;" style="rounded=0;whiteSpace=wrap;html=1;sketch=1;hachureGap=4;jiggle=2;curveFitting=1;fontFamily=Architects Daughter;fontSource=https%3A%2F%2Ffonts.googleapis.com%2Fcss%3Ffamily%3DArchitects%2BDaughter;fontSize=20;" parent="1" vertex="1">
          <mxGeometry x="130" y="-530" width="310" height="50" as="geometry" />
        </mxCell>
        <mxCell id="zued0OZVDX7-Uuz-uOzh-6" style="edgeStyle=none;curved=1;rounded=0;sketch=1;hachureGap=4;jiggle=2;curveFitting=1;orthogonalLoop=1;jettySize=auto;html=1;entryX=0.5;entryY=0;entryDx=0;entryDy=0;fontFamily=Architects Daughter;fontSource=https%3A%2F%2Ffonts.googleapis.com%2Fcss%3Ffamily%3DArchitects%2BDaughter;fontSize=16;startSize=8;endSize=8;" parent="1" source="zued0OZVDX7-Uuz-uOzh-4" target="zued0OZVDX7-Uuz-uOzh-1" edge="1">
          <mxGeometry relative="1" as="geometry" />
        </mxCell>
        <mxCell id="zued0OZVDX7-Uuz-uOzh-4" value="&lt;a style=&quot;border-color: var(--border-color);&quot; href=&quot;https://repo.openeuler.org/openEuler-22.03-LTS-SP2/docker_img/&quot;&gt;/openEuler-22.03-LTS-SP2/docker_img&lt;/a&gt;" style="rounded=0;whiteSpace=wrap;html=1;sketch=1;hachureGap=4;jiggle=2;curveFitting=1;fontFamily=Architects Daughter;fontSource=https%3A%2F%2Ffonts.googleapis.com%2Fcss%3Ffamily%3DArchitects%2BDaughter;fontSize=20;" parent="1" vertex="1">
          <mxGeometry x="290" y="-440" width="270" height="50" as="geometry" />
        </mxCell>
        <mxCell id="zued0OZVDX7-Uuz-uOzh-7" style="edgeStyle=none;curved=1;rounded=0;sketch=1;hachureGap=4;jiggle=2;curveFitting=1;orthogonalLoop=1;jettySize=auto;html=1;entryX=0.5;entryY=0;entryDx=0;entryDy=0;fontFamily=Architects Daughter;fontSource=https%3A%2F%2Ffonts.googleapis.com%2Fcss%3Ffamily%3DArchitects%2BDaughter;fontSize=16;startSize=8;endSize=8;" parent="1" source="zued0OZVDX7-Uuz-uOzh-5" target="zued0OZVDX7-Uuz-uOzh-1" edge="1">
          <mxGeometry relative="1" as="geometry" />
        </mxCell>
        <mxCell id="zued0OZVDX7-Uuz-uOzh-5" value="gitee.com/openeuler/wsl" style="rounded=0;whiteSpace=wrap;html=1;sketch=1;hachureGap=4;jiggle=2;curveFitting=1;fontFamily=Architects Daughter;fontSource=https%3A%2F%2Ffonts.googleapis.com%2Fcss%3Ffamily%3DArchitects%2BDaughter;fontSize=20;" parent="1" vertex="1">
          <mxGeometry x="130" y="-330" width="290" height="60" as="geometry" />
        </mxCell>
        <mxCell id="zued0OZVDX7-Uuz-uOzh-9" style="edgeStyle=none;curved=1;rounded=0;sketch=1;hachureGap=4;jiggle=2;curveFitting=1;orthogonalLoop=1;jettySize=auto;html=1;entryX=0;entryY=0.5;entryDx=0;entryDy=0;fontFamily=Architects Daughter;fontSource=https%3A%2F%2Ffonts.googleapis.com%2Fcss%3Ffamily%3DArchitects%2BDaughter;fontSize=16;startSize=8;endSize=8;" parent="1" source="zued0OZVDX7-Uuz-uOzh-8" target="zued0OZVDX7-Uuz-uOzh-1" edge="1">
          <mxGeometry relative="1" as="geometry" />
        </mxCell>
        <mxCell id="zued0OZVDX7-Uuz-uOzh-8" value="self-signed cert" style="rounded=0;whiteSpace=wrap;html=1;sketch=1;hachureGap=4;jiggle=2;curveFitting=1;fontFamily=Architects Daughter;fontSource=https%3A%2F%2Ffonts.googleapis.com%2Fcss%3Ffamily%3DArchitects%2BDaughter;fontSize=20;fillColor=#f8cecc;strokeColor=#b85450;" parent="1" vertex="1">
          <mxGeometry x="130" y="-250" width="170" height="60" as="geometry" />
        </mxCell>
        <mxCell id="zued0OZVDX7-Uuz-uOzh-10" value="本次修改内容" style="rounded=0;whiteSpace=wrap;html=1;sketch=1;hachureGap=4;jiggle=2;curveFitting=1;fontFamily=Architects Daughter;fontSource=https%3A%2F%2Ffonts.googleapis.com%2Fcss%3Ffamily%3DArchitects%2BDaughter;fontSize=20;fillColor=#f8cecc;strokeColor=#b85450;" parent="1" vertex="1">
          <mxGeometry x="720" y="-530" width="80" height="50" as="geometry" />
        </mxCell>
      </root>
    </mxGraphModel>
  </diagram>
</mxfile>
